{"title":"Chop 2011 DVDRIP Xvid-BHRG","uid":6925476,"size":735972875,"categoryP":"video","categoryS":"movies","magnet":"?xt=urn:btih:f3d0a9b2f6106bef221e087af68ba2619f1d367b&amp;dn=Chop+2011+DVDRIP+Xvid-BHRG&amp;tr=udp%3A%2F%2Ftracker.openbittorrent.com%3A80&amp;tr=udp%3A%2F%2Fopen.demonii.com%3A1337&amp;tr=udp%3A%2F%2Ftracker.coppersurfer.tk%3A6969&amp;tr=udp%3A%2F%2Fexodus.desync.com%3A6969","seeders":1,"leechers":0,"uploader":"Hackulus","files":-1,"time":1325471408,"description":"\nPlot\n\nLance Reed is forced by a psychotic stranger to confront his duplicitous past. Seeking retribution for a crime, the man forces Lance to reveal his inner most secrets by systematically removing his limbs.\n\nGeneral Information\n\nFile size : 695 MiB\nDuration : 1h 23mn\nOverall bit rate : 1 171 Kbps &lt;a href=&quot;\nhttp://www.imdb.com/title/tt1544578/&quot; rel=&quot;nofollow&quot; target=&quot;_NEW&quot;&gt;\nhttp://www.imdb.com/title/tt1544578/&lt;/a&gt;\n\nVideo Information\n\nID : 0\nFormat : MPEG-4 Visual\nFormat profile : Advanced Simple@L5\nFormat settings, BVOP : 2\nFormat settings, QPel : No\nFormat settings, GMC : No warppoints\nFormat settings, Matrix : Default (H.263)\nCodec ID : XVID\nCodec ID/Hint : XviD\nDuration : 1h 23mn\nBit rate : 1 037 Kbps\nWidth : 608 pixels\nHeight : 336 pixels\nDisplay aspect ratio : 16:9\nFrame rate : 23.976 fps\nColor space : YUV\nChroma subsampling : 4:2:0\nBit depth : 8 bits\nScan type : Progressive\nCompression mode : Lossy\nBits/(Pixel*Frame) : 0.212\nStream size : 616 MiB (89%)\nWriting library : XviD 1.2.1 (UTC 2008-12-04)\n\nAudio Information\n\nID : 1\nFormat : MPEG Audio\nFormat version : Version 1\nFormat profile : Layer 3\nMode : Joint stereo\nMode extension : MS Stereo\nCodec ID : 55\nCodec ID/Hint : MP3\nDuration : 1h 23mn\nBit rate mode : Constant\nBit rate : 128 Kbps\nChannel(s) : 2 channels\nSampling rate : 48.0 KHz\nCompression mode : Lossy\nStream size : 76.0 MiB (11%)\nAlignment : Aligned on interleaves\nInterleave, duration : 167 ms (4.00 video frames)\nInterleave, preload duration : 216 ms\nTitle : Chop 2011 DVDRip x264 AC3-Freebee (1)\nWriting library : LAME3.98r\nEncoding settings : -m j -V 4 -q 2 -lowpass 17 -b 128","torrent":{"xt":"urn:btih:f3d0a9b2f6106bef221e087af68ba2619f1d367b","amp;dn":"Chop+2011+DVDRIP+Xvid-BHRG","amp;tr":["udp%3A%2F%2Ftracker.openbittorrent.com%3A80","udp%3A%2F%2Fopen.demonii.com%3A1337","udp%3A%2F%2Ftracker.coppersurfer.tk%3A6969","udp%3A%2F%2Fexodus.desync.com%3A6969"],"infoHash":"f3d0a9b2f6106bef221e087af68ba2619f1d367b","infoHashBuffer":{"type":"Buffer","data":[243,208,169,178,246,16,107,239,34,30,8,122,246,139,162,97,159,29,54,123]},"announce":[],"urlList":[]}}